<svg width="18" height="18" viewBox="0 0 18 18" fill="none" xmlns="http://www.w3.org/2000/svg">
<mask id="mask0_1_2018" style="mask-type:luminance" maskUnits="userSpaceOnUse" x="0" y="0" width="17" height="18">
<path d="M16.6875 7.5H9V10.6875H13.425C13.0125 12.7125 11.2875 13.875 9 13.875C6.3 13.875 4.125 11.7 4.125 9C4.125 6.3 6.3 4.125 9 4.125C10.1625 4.125 11.2125 4.5375 12.0375 5.2125L14.4375 2.8125C12.975 1.5375 11.1 0.75 9 0.75C4.425 0.75 0.75 4.425 0.75 9C0.75 13.575 4.425 17.25 9 17.25C13.125 17.25 16.875 14.25 16.875 9C16.875 8.5125 16.8 7.9875 16.6875 7.5Z" fill="white"/>
</mask>
<g mask="url(#mask0_1_2018)">
<path d="M0 13.875V4.125L6.375 9L0 13.875Z" fill="#FBBC05"/>
</g>
<mask id="mask1_1_2018" style="mask-type:luminance" maskUnits="userSpaceOnUse" x="0" y="0" width="17" height="18">
<path d="M16.6875 7.5H9V10.6875H13.425C13.0125 12.7125 11.2875 13.875 9 13.875C6.3 13.875 4.125 11.7 4.125 9C4.125 6.3 6.3 4.125 9 4.125C10.1625 4.125 11.2125 4.5375 12.0375 5.2125L14.4375 2.8125C12.975 1.5375 11.1 0.75 9 0.75C4.425 0.75 0.75 4.425 0.75 9C0.75 13.575 4.425 17.25 9 17.25C13.125 17.25 16.875 14.25 16.875 9C16.875 8.5125 16.8 7.9875 16.6875 7.5Z" fill="white"/>
</mask>
<g mask="url(#mask1_1_2018)">
<path d="M0 4.125L6.375 9L9 6.7125L18 5.25V0H0V4.125Z" fill="#EA4335"/>
</g>
<mask id="mask2_1_2018" style="mask-type:luminance" maskUnits="userSpaceOnUse" x="0" y="0" width="17" height="18">
<path d="M16.6875 7.5H9V10.6875H13.425C13.0125 12.7125 11.2875 13.875 9 13.875C6.3 13.875 4.125 11.7 4.125 9C4.125 6.3 6.3 4.125 9 4.125C10.1625 4.125 11.2125 4.5375 12.0375 5.2125L14.4375 2.8125C12.975 1.5375 11.1 0.75 9 0.75C4.425 0.75 0.75 4.425 0.75 9C0.75 13.575 4.425 17.25 9 17.25C13.125 17.25 16.875 14.25 16.875 9C16.875 8.5125 16.8 7.9875 16.6875 7.5Z" fill="white"/>
</mask>
<g mask="url(#mask2_1_2018)">
<path d="M0 13.875L11.25 5.25L14.2125 5.625L18 0V18H0V13.875Z" fill="#34A853"/>
</g>
<mask id="mask3_1_2018" style="mask-type:luminance" maskUnits="userSpaceOnUse" x="0" y="0" width="17" height="18">
<path d="M16.6875 7.5H9V10.6875H13.425C13.0125 12.7125 11.2875 13.875 9 13.875C6.3 13.875 4.125 11.7 4.125 9C4.125 6.3 6.3 4.125 9 4.125C10.1625 4.125 11.2125 4.5375 12.0375 5.2125L14.4375 2.8125C12.975 1.5375 11.1 0.75 9 0.75C4.425 0.75 0.75 4.425 0.75 9C0.75 13.575 4.425 17.25 9 17.25C13.125 17.25 16.875 14.25 16.875 9C16.875 8.5125 16.8 7.9875 16.6875 7.5Z" fill="white"/>
</mask>
<g mask="url(#mask3_1_2018)">
<path d="M18 18L6.375 9L4.875 7.875L18 4.125V18Z" fill="#4285F4"/>
</g>
</svg>
